<svg 
          width="13.645272254943848" 
          height="16.85608673095703" fill="none" 
          xmlns="http://www.w3.org/2000/svg">
          <path d="M 10.35637107382536 1.0111032249786134 C 9.333734685495125 0.35016601614054266 8.150762728128619 0 6.842134757563956 0 C 5.49450797714028 0 4.311550793341629 0.35016601614054266 3.288914405011396 1.0111032249786134 C 2.248945108987715 1.6939257511244166 1.4516285140183895 2.661257089198469 0.8579793957281348 3.8999671967478022 C 0.28599628291511014 5.160562725962293 0 6.644390057077025 0 8.377708857568237 C 0 10.111027658059449 0.28599628291511014 11.616738323690846 0.8579793957281348 12.877333852905336 C 1.2479678559090994 13.743993253150942 1.737621129369451 14.444322728675123 2.34860305204149 15.04398099687283 C 2.634594608448002 15.332867472317819 2.9422579816128076 15.599868995706059 3.288914405011396 15.827476504421327 C 4.146889048403017 16.405249455311303 5.104515229525287 16.73353044112703 6.187816536503428 16.81669472516448 C 6.39147718169876 16.856088335452434 6.616808093977435 16.85608673095703 6.842134757563956 16.85608673095703 C 7.067461421150477 16.85608673095703 7.271118372953844 16.856088335452434 7.474779018149176 16.81669472516448 C 8.536414319650088 16.73353044112703 9.498396430433738 16.405249455311303 10.35637107382536 15.827476504421327 C 10.703027497223948 15.599868995706059 11.010677646495845 15.332867472317819 11.296669202902358 15.04398099687283 C 11.907651125574397 14.444322728675123 12.401637600130194 13.743993253150942 12.787292859215713 12.877333852905336 C 13.359275972028737 11.616738323690846 13.645272254943848 10.111027658059449 13.645272254943848 8.377708857568237 C 13.645272254943848 6.644390057077025 13.359275972028737 5.160562725962293 12.787292859215713 3.8999671967478022 C 12.193643740925458 2.661257089198469 11.39634036984904 1.68954868766287 10.35637107382536 1.0111032249786134 Z M 11.153679248894122 12.006294988977416 C 10.746357958503458 13.039282905119213 10.174370635740152 13.822778569203848 9.416059720855452 14.400551520093822 C 9.047737266151717 14.68943799553881 8.64041122342454 14.895159756471969 8.233089933033876 15.039602994194462 C 7.782436605860835 15.184046231916955 7.336120147347289 15.24532570738912 6.842134757563956 15.24532570738912 C 6.352482568876069 15.24532570738912 5.862830380188183 15.184046231916955 5.433843058492372 15.039602994194462 C 5.004855736796562 14.895159756471969 4.597534988792129 14.68943799553881 4.229212534088394 14.400551520093822 C 3.4752348202991414 13.822778569203848 2.903247497535836 13.039282905119213 2.4915930060497256 12.006294988977416 C 2.079938514563615 10.973307072835619 1.8806227059398122 9.756484265385085 1.8806227059398122 8.373330854889868 C 1.8806227059398122 6.990177444394651 2.084271715659061 5.795235988669715 2.4915930060497256 4.78413338983565 C 2.89891429644039 3.7730307910015846 3.4709016192036954 2.9895377880312792 4.229212534088394 2.4336502066277492 C 4.965857443495863 1.8952708790704054 5.841164374710953 1.6063846906083357 6.842134757563956 1.6063846906083357 C 7.821439134939729 1.6063846906083357 8.679414811447984 1.8952708790704054 9.416059720855452 2.4336502066277492 C 10.170037434644705 2.9895377880312792 10.74202475740801 3.7730307910015846 11.153679248894122 4.78413338983565 C 11.561000539284786 5.795235988669715 11.764662772896942 6.990177444394651 11.764662772896942 8.373330854889868 C 11.764662772896942 9.756484265385085 11.561000539284786 10.973307072835619 11.153679248894122 12.006294988977416 Z" fill="rgb(255,255,255)"/>
        </svg>