<svg 
          width="66.982666015625" 
          height="40.68047332763672" fill="none" 
          xmlns="http://www.w3.org/2000/svg">
          <path d="M 0 0 L 0 1.7945979382652857 L 65.13237950537828 1.7945979382652857 L 65.13237950537828 38.91213735635942 L 39.111495633382404 38.91213735635942 L 35.397936754162096 32.39030500502716 L 39.80914833078868 24.445925474420047 L 37.91120292558106 24.445925474420047 L 35.64493254774692 28.779223703791022 C 35.46293799143319 29.1293891685227 35.27661497481595 29.501438623045157 35.094620418502224 29.851604087776835 C 34.92995867400077 30.201769552508512 34.72630019821072 30.63510142606929 34.500973605909344 31.112201879266895 L 34.39696772109595 31.112201879266895 C 34.14997510434377 30.639478490138917 33.92899069987883 30.20614661657814 33.74266293092658 29.851604087776835 C 33.53900235016205 29.501438623045157 33.335340180981206 29.1293891685227 33.13167960021668 28.779223703791022 L 30.82207453903435 24.445925474420047 L 28.79847574317232 24.445925474420047 L 33.20967409591018 32.28525630221567 L 29.513451734806893 38.90775935307285 L 28.53414343147048 40.68047332763672 L 30.41475231856108 40.68047332763672 L 31.37672410378048 38.90775935307285 L 32.845686558785104 36.18522237104291 C 33.07101315108648 35.77377795715776 33.27466475665309 35.35795567043284 33.49999134895447 34.94651125654769 C 33.703651929718994 34.53506684266254 33.92898277071118 34.07985481444687 34.15430936301256 33.585246104970764 L 34.25830202393723 33.585246104970764 C 34.52262746541564 34.07985481444687 34.76962537688888 34.53506684266254 34.99495196919026 34.94651125654769 C 35.24194458594244 35.35795567043284 35.4629422142961 35.77377795715776 35.64926998324835 36.18522237104291 L 37.139893167982706 38.90775935307285 L 38.1018649532021 40.68047332763672 L 40.12546374906413 40.68047332763672 L 66.982666015625 40.68047332763672 L 66.982666015625 0 L 0 0 Z" fill="rgb(255,255,255)"/>
        </svg>