<svg 
          width="11.136333465576172" 
          height="16.26081085205078" fill="none" 
          xmlns="http://www.w3.org/2000/svg">
          <path d="M 7.804098379670751 7.594213509642061 L 7.804098379670751 7.4891647961195575 C 8.579741914520563 7.239671883907805 9.195054283372146 6.8063431490657 9.602375476918299 6.14978284553287 C 10.009696670464452 5.5107308000637225 10.213358855653976 4.788512493821808 10.213358855653976 3.983131840211493 C 10.213358855653976 3.0333079010396142 9.966363559212471 2.2716982056608575 9.520043539251732 1.6939251155933277 C 9.069390319225807 1.0942667029461934 8.415079640517831 0.6828217253219453 7.6004372534255245 0.3939351802881805 C 6.764128866007286 0.1269339839233824 5.802160156177977 0 4.7188591067650245 0 L 1.8806090349141134 0.021885009507255068 L 0.021667343377235377 0.021885009507255068 L 0 16.26081085205078 L 5.087184108343381 16.26081085205078 C 6.270148862567256 16.26081085205078 7.33178277522625 16.0944821134628 8.254755318915672 15.744316613027419 C 8.865737096320947 15.494823700815667 9.420384070218 15.166541279274718 9.849371289917995 14.733211474768751 C 10.053031886691072 14.566882866627584 10.217698409384946 14.383046104780181 10.382360166829482 14.155438541237396 C 10.893678239423835 13.455107540366633 11.136333465576172 12.56656318274107 11.136333465576172 11.516066655345561 C 11.136333465576172 10.382405902147555 10.828678068901626 9.49386013569642 10.21769629149635 8.854808090227273 C 9.60238131402589 8.193870722178522 8.805068524533525 7.782427466452196 7.804098379670751 7.594213509642061 Z M 1.8806090349141134 1.4444323338283878 L 4.454539998175351 1.4444323338283878 C 5.763167657601266 1.4444323338283878 6.742466016686338 1.6501544965234816 7.41411264666004 2.0615989523604807 C 8.09009247669893 2.47304340819748 8.415081758406426 3.195260436060634 8.415081758406426 4.206363278455405 C 8.415081758406426 5.051137512709008 8.090090927024347 5.733958116188369 7.453109897572134 6.228566876095952 C 6.820462068185108 6.7231756360035355 5.776158269684251 6.972670557096196 4.350534105186668 6.972670557096196 L 1.8806090349141134 6.972670557096196 L 1.8806090349141134 1.4444323338283878 L 1.8806090349141134 1.4444323338283878 Z M 8.150762649816754 13.989111133206901 C 7.578779672998154 14.383047304890855 6.842128585069234 14.62816182855154 5.923489344756637 14.733211474768751 C 5.57683300377891 14.772605094546083 5.18685150654539 14.794493508715137 4.779530312999237 14.794493508715137 L 1.8806090349141134 14.794493508715137 L 1.8806090349141134 8.377709205923846 L 4.779530312999237 8.377709205923846 C 6.2484865814603205 8.377709205923846 7.392442410556919 8.644709463071596 8.16808594540673 9.13931822297918 C 8.943729480256541 9.633926982886763 9.351055451965989 10.417421792130224 9.351055451965989 11.450409957104599 C 9.355388656066786 12.588447774818524 8.948072236648315 13.4332234178977 8.150762649816754 13.989111133206901 Z" fill="rgb(255,255,255)"/>
        </svg>