<svg 
          width="11.40067195892334" 
          height="16.549694061279297" fill="none" 
          xmlns="http://www.w3.org/2000/svg">
          <path d="M 9.667390348441357 9.673320209414118 C 9.667390348441357 11.01270307507165 9.4853873263828 12.067576148346188 9.117064973824215 12.829186031547861 C 8.770408646562236 13.590795914749535 8.280761888388588 14.12917584212882 7.6871129347322755 14.45745596239924 C 7.093463981075963 14.785736082669661 6.421819495565033 14.930180137053783 5.685174790447864 14.930180137053783 C 4.970196136455209 14.930180137053783 4.315877580295531 14.785736082669661 3.743894626107917 14.45745596239924 C 3.171911671920303 14.12917584212882 2.7039293635408317 13.590795914749535 2.3529398363851137 12.829186031547861 C 1.9846174838265291 12.067576148346188 1.8199509805617775 11.01270307507165 1.8199509805617775 9.673320209414118 L 1.8199509805617775 0 L 0 0 L 0 9.677698212727051 C 0 10.955802181040937 0.14299944485179789 12.05006789196229 0.45065692141430264 12.938612738304668 C 0.7366483985081096 13.805272264167174 1.1439690593800858 14.527489144470994 1.655287111743711 15.043983177404487 C 2.1666051641073363 15.582362582996572 2.7775922378877924 15.950036045326526 3.475238092305488 16.19952893360132 C 4.168550746829444 16.44902182187612 4.905193850616277 16.549694061279297 5.680837354777102 16.549694061279297 C 6.4998129095311405 16.549694061279297 7.232121212093895 16.444644757780143 7.925433866617851 16.19952893360132 C 8.601413669911032 15.950036045326526 9.212392840351434 15.582362582996572 9.72371089271506 15.043983177404487 C 10.235028945078685 14.527489144470994 10.642357560946534 13.805272264167174 10.950015037509038 12.938612738304668 C 11.257672514071542 12.05006789196229 11.40067195892334 10.960179245136912 11.40067195892334 9.677698212727051 L 11.40067195892334 0 L 9.663052912770596 0 L 9.663052912770596 9.673320209414118 L 9.667390348441357 9.673320209414118 Z" fill="rgb(255,255,255)"/>
        </svg>