<svg 
          width="10.90667724609375" 
          height="16.265188217163086" fill="none" 
          xmlns="http://www.w3.org/2000/svg">
          <path d="M 9.754043716542798 7.143376421699482 C 10.226362835339625 6.443045376432655 10.464682098018178 5.563254257206767 10.464682098018178 4.504003533630371 C 10.464682098018178 3.400982162120015 10.226362835339625 2.516814552066741 9.754043716542798 1.8558771421192066 C 9.28172459774597 1.1949397321716722 8.627402508727595 0.7222162909657144 7.795427591250519 0.43332972761857325 C 6.9634526737734435 0.1444431642714321 6.005816958088945 0 4.926849458736596 0 L 0 0 L 0 16.265188217163086 L 1.8156130277788378 16.265188217163086 L 1.8156130277788378 9.235615688806812 L 4.840193337226926 9.235615688806812 L 8.848405919871078 16.265188217163086 L 10.90667724609375 16.265188217163086 L 6.712126893238586 9.029892913015004 C 7.089115538212971 8.946728603672389 7.457446773977846 8.854810451725985 7.791103380700593 8.714744247890492 C 8.627411496837253 8.368955790050475 9.28172459774597 7.843707466966309 9.754043716542798 7.143376421699482 Z M 4.632194842609864 7.747412406762694 L 1.8156130277788378 7.747412406762694 L 1.8156130277788378 1.4838261128932646 L 4.632194842609864 1.4838261128932646 C 5.923489282905017 1.4838261128932646 6.915790587866183 1.7114338995796823 7.60910304492498 2.166649055522692 C 8.302415501983779 2.6218642114657014 8.64906907023934 3.400982162120015 8.64906907023934 4.504003533630371 C 8.64906907023934 5.593893710760539 8.302415501983779 6.408029223336585 7.60910304492498 6.942031649918179 C 6.915790587866183 7.480411141293169 5.923489282905017 7.747412406762694 4.632194842609864 7.747412406762694 Z" fill="rgb(255,255,255)"/>
        </svg>